Metropolis-Regular Italic.ufo
<glyph name="exclam" format="1">
  <advance width="272"/>
  <unicode hex="0021"/>
  <outline>
    <contour>
      <point x="148" y="193" type="line"/>
      <point x="270" y="687" type="line"/>
      <point x="178" y="687" type="line"/>
      <point x="95" y="193" type="line"/>
    </contour>
    <component base="period" xOffset="10"/>
  </outline>
</glyph>
<glyph name="dollar" format="1">
  <advance width="614"/>
  <unicode hex="0024"/>
  <outline>
    <contour>
      <point x="273" y="-74" type="line"/>
      <point x="446" y="759" type="line"/>
      <point x="368" y="759" type="line"/>
      <point x="195" y="-74" type="line"/>
    </contour>
    <component base="S"/>
  </outline>
</glyph>
<glyph name="parenleft" format="1">
  <advance width="360"/>
  <unicode hex="0028"/>
  <outline>
    <contour>
      <point x="231" y="-129" type="line"/>
      <point x="166" y="-46"/>
      <point x="131" y="40"/>
      <point x="131" y="145" type="curve" smooth="yes"/>
      <point x="131" y="350"/>
      <point x="233" y="518"/>
      <point x="397" y="656" type="curve"/>
      <point x="361" y="702" type="line"/>
      <point x="176" y="569"/>
      <point x="53" y="369"/>
      <point x="53" y="155" type="curve" smooth="yes"/>
      <point x="53" y="29"/>
      <point x="100" y="-82"/>
      <point x="186" y="-168" type="curve"/>
    </contour>
  </outline>
</glyph>
<glyph name="parenright" format="1">
  <advance width="359"/>
  <unicode hex="0029"/>
  <outline>
    <contour>
      <point x="186" y="-39"/>
      <point x="309" y="162"/>
      <point x="309" y="376" type="curve" smooth="yes"/>
      <point x="309" y="502"/>
      <point x="262" y="612"/>
      <point x="177" y="698" type="curve"/>
      <point x="132" y="660" type="line"/>
      <point x="196" y="576"/>
      <point x="231" y="491"/>
      <point x="231" y="385" type="curve" smooth="yes"/>
      <point x="231" y="185"/>
      <point x="133" y="15"/>
      <point x="-34" y="-125" type="curve"/>
      <point x="1" y="-172" type="line"/>
    </contour>
  </outline>
</glyph>
<glyph name="asterisk" format="1">
  <advance width="409"/>
  <unicode hex="002A"/>
  <outline>
    <contour>
      <point x="243" y="376"/>
      <point x="256" y="386"/>
      <point x="258" y="398" type="curve" smooth="yes"/>
      <point x="267" y="440"/>
      <point x="265" y="481"/>
      <point x="268" y="523" type="curve"/>
      <point x="297" y="498"/>
      <point x="321" y="468"/>
      <point x="352" y="447" type="curve" smooth="yes"/>
      <point x="361" y="441"/>
      <point x="377" y="446"/>
      <point x="387" y="458" type="curve" smooth="yes"/>
      <point x="396" y="470"/>
      <point x="395" y="484"/>
      <point x="386" y="490" type="curve" smooth="yes"/>
      <point x="355" y="511"/>
      <point x="316" y="522"/>
      <point x="281" y="539" type="curve"/>
      <point x="323" y="556"/>
      <point x="366" y="567"/>
      <point x="407" y="588" type="curve" smooth="yes"/>
      <point x="418" y="594"/>
      <point x="425" y="608"/>
      <point x="420" y="620" type="curve" smooth="yes"/>
      <point x="416" y="632"/>
      <point x="402" y="637"/>
      <point x="391" y="631" type="curve" smooth="yes"/>
      <point x="350" y="610"/>
      <point x="314" y="580"/>
      <point x="275" y="555" type="curve"/>
      <point x="289" y="597"/>
      <point x="308" y="638"/>
      <point x="317" y="680" type="curve" smooth="yes"/>
      <point x="319" y="692"/>
      <point x="310" y="702"/>
      <point x="296" y="702" type="curve" smooth="yes"/>
      <point x="282" y="702"/>
      <point x="269" y="692"/>
      <point x="267" y="680" type="curve" smooth="yes"/>
      <point x="258" y="638"/>
      <point x="261" y="597"/>
      <point x="257" y="555" type="curve"/>
      <point x="228" y="580"/>
      <point x="204" y="610"/>
      <point x="173" y="631" type="curve" smooth="yes"/>
      <point x="164" y="637"/>
      <point x="148" y="632"/>
      <point x="138" y="620" type="curve" smooth="yes"/>
      <point x="129" y="608"/>
      <point x="130" y="594"/>
      <point x="139" y="588" type="curve" smooth="yes"/>
      <point x="170" y="567"/>
      <point x="209" y="556"/>
      <point x="245" y="539" type="curve"/>
      <point x="202" y="522"/>
      <point x="159" y="511"/>
      <point x="118" y="490" type="curve" smooth="yes"/>
      <point x="107" y="484"/>
      <point x="100" y="470"/>
      <point x="105" y="458" type="curve" smooth="yes"/>
      <point x="109" y="446"/>
      <point x="123" y="441"/>
      <point x="134" y="447" type="curve" smooth="yes"/>
      <point x="175" y="468"/>
      <point x="211" y="498"/>
      <point x="250" y="523" type="curve"/>
      <point x="237" y="481"/>
      <point x="217" y="440"/>
      <point x="208" y="398" type="curve" smooth="yes"/>
      <point x="206" y="386"/>
      <point x="215" y="376"/>
      <point x="229" y="376" type="curve" smooth="yes"/>
    </contour>
  </outline>
</glyph>
<glyph name="slash" format="1">
  <advance width="417"/>
  <unicode hex="002F"/>
  <outline>
    <contour>
      <point x="2" y="-74" type="line"/>
      <point x="523" y="743" type="line"/>
      <point x="436" y="743" type="line"/>
      <point x="-85" y="-74" type="line"/>
    </contour>
  </outline>
</glyph>
<glyph name="three" format="1">
  <advance width="586"/>
  <unicode hex="0033"/>
  <outline>
    <contour>
      <point x="384" y="-12"/>
      <point x="516" y="82"/>
      <point x="516" y="216" type="curve" smooth="yes"/>
      <point x="516" y="295"/>
      <point x="456" y="337"/>
      <point x="399" y="350" type="curve"/>
      <point x="496" y="377"/>
      <point x="569" y="446"/>
      <point x="569" y="544" type="curve" smooth="yes"/>
      <point x="569" y="637"/>
      <point x="491" y="699"/>
      <point x="372" y="699" type="curve" smooth="yes"/>
      <point x="268" y="699"/>
      <point x="183" y="649"/>
      <point x="117" y="580" type="curve"/>
      <point x="162" y="529" type="line"/>
      <point x="222" y="588"/>
      <point x="286" y="628"/>
      <point x="365" y="628" type="curve" smooth="yes"/>
      <point x="439" y="628"/>
      <point x="489" y="589"/>
      <point x="489" y="532" type="curve" smooth="yes"/>
      <point x="489" y="442"/>
      <point x="397" y="382"/>
      <point x="296" y="383" type="curve" smooth="yes"/>
      <point x="225" y="384" type="line"/>
      <point x="210" y="312" type="line"/>
      <point x="286" y="312" type="line" smooth="yes"/>
      <point x="382" y="312"/>
      <point x="439" y="282"/>
      <point x="439" y="220" type="curve" smooth="yes"/>
      <point x="439" y="129"/>
      <point x="348" y="59"/>
      <point x="242" y="59" type="curve" smooth="yes"/>
      <point x="161" y="59"/>
      <point x="103" y="97"/>
      <point x="70" y="155" type="curve"/>
      <point x="9" y="108" type="line"/>
      <point x="46" y="42"/>
      <point x="123" y="-12"/>
      <point x="238" y="-12" type="curve" smooth="yes"/>
    </contour>
  </outline>
</glyph>
<glyph name="six" format="1">
  <advance width="623"/>
  <unicode hex="0036"/>
  <outline>
    <contour>
      <point x="424" y="-12"/>
      <point x="558" y="108"/>
      <point x="558" y="259" type="curve" smooth="yes"/>
      <point x="558" y="367"/>
      <point x="475" y="429"/>
      <point x="363" y="429" type="curve" smooth="yes"/>
      <point x="277" y="429"/>
      <point x="192" y="385"/>
      <point x="136" y="306" type="curve"/>
      <point x="133" y="200" type="line"/>
      <point x="156" y="293"/>
      <point x="246" y="362"/>
      <point x="346" y="362" type="curve" smooth="yes"/>
      <point x="425" y="362"/>
      <point x="480" y="321"/>
      <point x="480" y="250" type="curve" smooth="yes"/>
      <point x="480" y="151"/>
      <point x="382" y="55"/>
      <point x="272" y="55" type="curve" smooth="yes"/>
      <point x="180" y="55"/>
      <point x="141" y="125"/>
      <point x="141" y="224" type="curve" smooth="yes"/>
      <point x="141" y="402"/>
      <point x="263" y="628"/>
      <point x="419" y="628" type="curve" smooth="yes"/>
      <point x="482" y="628"/>
      <point x="520" y="600"/>
      <point x="555" y="558" type="curve"/>
      <point x="606" y="615" type="line"/>
      <point x="565" y="664"/>
      <point x="511" y="699"/>
      <point x="424" y="699" type="curve" smooth="yes"/>
      <point x="220" y="699"/>
      <point x="63" y="446"/>
      <point x="63" y="216" type="curve" smooth="yes"/>
      <point x="63" y="82"/>
      <point x="123" y="-12"/>
      <point x="270" y="-12" type="curve" smooth="yes"/>
    </contour>
  </outline>
</glyph>
<glyph name="question" format="1">
  <advance width="509"/>
  <unicode hex="003F"/>
  <outline>
    <contour>
      <point x="254" y="193" type="line"/>
      <point x="280" y="320" type="line"/>
      <point x="401" y="345"/>
      <point x="521" y="430"/>
      <point x="521" y="547" type="curve" smooth="yes"/>
      <point x="521" y="634"/>
      <point x="454" y="699"/>
      <point x="340" y="699" type="curve" smooth="yes"/>
      <point x="242" y="699"/>
      <point x="161" y="652"/>
      <point x="95" y="586" type="curve"/>
      <point x="139" y="531" type="line"/>
      <point x="193" y="585"/>
      <point x="255" y="628"/>
      <point x="333" y="628" type="curve" smooth="yes"/>
      <point x="404" y="628"/>
      <point x="441" y="586"/>
      <point x="441" y="536" type="curve" smooth="yes"/>
      <point x="441" y="447"/>
      <point x="320" y="389"/>
      <point x="208" y="380" type="curve"/>
      <point x="170" y="193" type="line"/>
    </contour>
    <component base="period" xOffset="104"/>
  </outline>
</glyph>
<glyph name="B" format="1">
  <advance width="682"/>
  <unicode hex="0042"/>
  <outline>
    <contour>
      <point x="370" y="0" type="line" smooth="yes"/>
      <point x="502" y="0"/>
      <point x="613" y="101"/>
      <point x="613" y="220" type="curve" smooth="yes"/>
      <point x="613" y="273"/>
      <point x="575" y="332"/>
      <point x="522" y="362" type="curve"/>
      <point x="606" y="405"/>
      <point x="655" y="474"/>
      <point x="655" y="547" type="curve" smooth="yes"/>
      <point x="655" y="629"/>
      <point x="589" y="687"/>
      <point x="496" y="687" type="curve" smooth="yes"/>
      <point x="183" y="687" type="line"/>
      <point x="40" y="0" type="line"/>
    </contour>
    <contour>
      <point x="186" y="325" type="line"/>
      <point x="418" y="325" type="line" smooth="yes"/>
      <point x="488" y="325"/>
      <point x="538" y="285"/>
      <point x="538" y="229" type="curve" smooth="yes"/>
      <point x="538" y="143"/>
      <point x="456" y="71"/>
      <point x="359" y="71" type="curve" smooth="yes"/>
      <point x="133" y="71" type="line"/>
    </contour>
    <contour>
      <point x="247" y="616" type="line"/>
      <point x="466" y="616" type="line" smooth="yes"/>
      <point x="529" y="616"/>
      <point x="574" y="582"/>
      <point x="574" y="533" type="curve" smooth="yes"/>
      <point x="574" y="459"/>
      <point x="501" y="396"/>
      <point x="415" y="396" type="curve" smooth="yes"/>
      <point x="201" y="396" type="line"/>
    </contour>
  </outline>
</glyph>
<glyph name="C" format="1">
  <advance width="683"/>
  <unicode hex="0043"/>
  <outline>
    <contour>
      <point x="435" y="-12"/>
      <point x="546" y="31"/>
      <point x="619" y="91" type="curve"/>
      <point x="574" y="149" type="line"/>
      <point x="515" y="97"/>
      <point x="429" y="60"/>
      <point x="366" y="60" type="curve" smooth="yes"/>
      <point x="245" y="60"/>
      <point x="143" y="161"/>
      <point x="143" y="280" type="curve" smooth="yes"/>
      <point x="143" y="468"/>
      <point x="299" y="627"/>
      <point x="485" y="627" type="curve" smooth="yes"/>
      <point x="551" y="627"/>
      <point x="623" y="592"/>
      <point x="660" y="542" type="curve"/>
      <point x="721" y="592" type="line"/>
      <point x="671" y="655"/>
      <point x="580" y="699"/>
      <point x="500" y="699" type="curve" smooth="yes"/>
      <point x="264" y="699"/>
      <point x="65" y="507"/>
      <point x="65" y="280" type="curve" smooth="yes"/>
      <point x="65" y="121"/>
      <point x="196" y="-12"/>
      <point x="352" y="-12" type="curve" smooth="yes"/>
    </contour>
    <contour>
      <point x="483" y="687" type="move" name="top"/>
    </contour>
    <contour>
      <point x="344" y="0" type="move" name="bottom"/>
    </contour>
  </outline>
</glyph>
<glyph name="D" format="1">
  <advance width="763"/>
  <unicode hex="0044"/>
  <outline>
    <contour>
      <point x="275" y="0" type="line" smooth="yes"/>
      <point x="518" y="0"/>
      <point x="723" y="189"/>
      <point x="723" y="414" type="curve" smooth="yes"/>
      <point x="723" y="574"/>
      <point x="595" y="687"/>
      <point x="413" y="687" type="curve" smooth="yes"/>
      <point x="183" y="687" type="line"/>
      <point x="40" y="0" type="line"/>
    </contour>
    <contour>
      <point x="247" y="616" type="line"/>
      <point x="403" y="616" type="line" smooth="yes"/>
      <point x="544" y="616"/>
      <point x="644" y="530"/>
      <point x="644" y="409" type="curve" smooth="yes"/>
      <point x="644" y="226"/>
      <point x="479" y="71"/>
      <point x="284" y="71" type="curve" smooth="yes"/>
      <point x="133" y="71" type="line"/>
    </contour>
    <contour>
      <point x="413" y="687" type="move" name="top"/>
    </contour>
  </outline>
</glyph>
<glyph name="E" format="1">
  <advance width="627"/>
  <unicode hex="0045"/>
  <outline>
    <contour>
      <point x="518" y="0" type="line"/>
      <point x="534" y="74" type="line"/>
      <point x="101" y="74" type="line"/>
      <point x="117" y="54" type="line"/>
      <point x="173" y="333" type="line"/>
      <point x="149" y="313" type="line"/>
      <point x="543" y="313" type="line"/>
      <point x="558" y="387" type="line"/>
      <point x="166" y="387" type="line"/>
      <point x="182" y="367" type="line"/>
      <point x="235" y="633" type="line"/>
      <point x="211" y="613" type="line"/>
      <point x="646" y="613" type="line"/>
      <point x="661" y="687" type="line"/>
      <point x="168" y="687" type="line"/>
      <point x="25" y="0" type="line"/>
    </contour>
    <contour>
      <point x="415" y="687" type="move" name="top"/>
    </contour>
    <contour>
      <point x="314" y="0" type="move" name="bottom"/>
    </contour>
  </outline>
</glyph>
<glyph name="J" format="1">
  <advance width="539"/>
  <unicode hex="004A"/>
  <outline>
    <contour>
      <point x="307" y="-12"/>
      <point x="416" y="85"/>
      <point x="445" y="221" type="curve" smooth="yes"/>
      <point x="542" y="687" type="line"/>
      <point x="464" y="687" type="line"/>
      <point x="369" y="227" type="line" smooth="yes"/>
      <point x="349" y="129"/>
      <point x="276" y="59"/>
      <point x="194" y="59" type="curve" smooth="yes"/>
      <point x="130" y="59"/>
      <point x="75" y="99"/>
      <point x="60" y="155" type="curve"/>
      <point x="-6" y="105" type="line"/>
      <point x="24" y="36"/>
      <point x="101" y="-12"/>
      <point x="180" y="-12" type="curve" smooth="yes"/>
    </contour>
  </outline>
</glyph>
<glyph name="L" format="1">
  <advance width="555"/>
  <unicode hex="004C"/>
  <outline>
    <contour>
      <point x="467" y="0" type="line"/>
      <point x="483" y="74" type="line"/>
      <point x="86" y="74" type="line"/>
      <point x="104" y="50" type="line"/>
      <point x="235" y="687" type="line"/>
      <point x="157" y="687" type="line"/>
      <point x="14" y="0" type="line"/>
    </contour>
    <contour>
      <point x="262" y="687" type="move" name="top"/>
    </contour>
  </outline>
</glyph>
<glyph name="Q" format="1">
  <advance width="811"/>
  <unicode hex="0051"/>
  <outline>
    <contour>
      <point x="710" y="51" type="line"/>
      <point x="500" y="271" type="line"/>
      <point x="446" y="220" type="line"/>
      <point x="656" y="0" type="line"/>
    </contour>
    <component base="O"/>
  </outline>
</glyph>
<glyph name="R" format="1">
  <advance width="650"/>
  <unicode hex="0052"/>
  <outline>
    <contour>
      <point x="573" y="0" type="line"/>
      <point x="410" y="269" type="line"/>
      <point x="323" y="269" type="line"/>
      <point x="487" y="0" type="line"/>
    </contour>
    <component base="P"/>
  </outline>
</glyph>
<glyph name="S" format="1">
  <advance width="614"/>
  <unicode hex="0053"/>
  <outline>
    <contour>
      <point x="431" y="-11"/>
      <point x="547" y="86"/>
      <point x="547" y="222" type="curve" smooth="yes"/>
      <point x="547" y="305"/>
      <point x="492" y="352"/>
      <point x="354" y="385" type="curve" smooth="yes"/>
      <point x="242" y="414"/>
      <point x="197" y="442"/>
      <point x="197" y="486" type="curve" smooth="yes"/>
      <point x="197" y="570"/>
      <point x="272" y="629"/>
      <point x="378" y="629" type="curve" smooth="yes"/>
      <point x="439" y="629"/>
      <point x="512" y="593"/>
      <point x="553" y="543" type="curve"/>
      <point x="610" y="600" type="line"/>
      <point x="557" y="659"/>
      <point x="465" y="700"/>
      <point x="386" y="700" type="curve" smooth="yes"/>
      <point x="228" y="700"/>
      <point x="117" y="603"/>
      <point x="117" y="467" type="curve" smooth="yes"/>
      <point x="117" y="388"/>
      <point x="172" y="344"/>
      <point x="311" y="311" type="curve" smooth="yes"/>
      <point x="422" y="283"/>
      <point x="466" y="253"/>
      <point x="466" y="207" type="curve" smooth="yes"/>
      <point x="466" y="121"/>
      <point x="386" y="60"/>
      <point x="272" y="60" type="curve" smooth="yes"/>
      <point x="199" y="60"/>
      <point x="116" y="100"/>
      <point x="71" y="157" type="curve"/>
      <point x="13" y="100" type="line"/>
      <point x="67" y="35"/>
      <point x="171" y="-11"/>
      <point x="266" y="-11" type="curve" smooth="yes"/>
    </contour>
    <contour>
      <point x="384" y="687" type="move" name="top"/>
    </contour>
    <contour>
      <point x="258" y="0" type="move" name="bottom"/>
    </contour>
  </outline>
</glyph>
<glyph name="T" format="1">
  <advance width="630"/>
  <unicode hex="0054"/>
  <outline>
    <contour>
      <point x="300" y="0" type="line"/>
      <point x="428" y="613" type="line"/>
      <point x="659" y="613" type="line"/>
      <point x="674" y="687" type="line"/>
      <point x="134" y="687" type="line"/>
      <point x="119" y="613" type="line"/>
      <point x="350" y="613" type="line"/>
      <point x="222" y="0" type="line"/>
    </contour>
  </outline>
</glyph>
<glyph name="U" format="1">
  <advance width="746"/>
  <unicode hex="0055"/>
  <outline>
    <contour>
      <point x="486" y="-12"/>
      <point x="629" y="110"/>
      <point x="665" y="282" type="curve" smooth="yes"/>
      <point x="749" y="687" type="line"/>
      <point x="671" y="687" type="line"/>
      <point x="588" y="288" type="line" smooth="yes"/>
      <point x="561" y="154"/>
      <point x="455" y="59"/>
      <point x="332" y="59" type="curve" smooth="yes"/>
      <point x="210" y="59"/>
      <point x="142" y="151"/>
      <point x="169" y="282" type="curve" smooth="yes"/>
      <point x="253" y="687" type="line"/>
      <point x="175" y="687" type="line"/>
      <point x="92" y="288" type="line" smooth="yes"/>
      <point x="56" y="112"/>
      <point x="149" y="-12"/>
      <point x="318" y="-12" type="curve" smooth="yes"/>
    </contour>
    <contour>
      <point x="462" y="687" type="move" name="top"/>
    </contour>
    <contour>
      <point x="335" y="0" type="move" name="bottom"/>
    </contour>
  </outline>
</glyph>
<glyph name="W" format="1">
  <advance width="1081"/>
  <unicode hex="0057"/>
  <outline>
    <contour>
      <point x="295" y="0" type="line"/>
      <point x="610" y="585" type="line"/>
      <point x="678" y="0" type="line"/>
      <point x="755" y="0" type="line"/>
      <point x="1133" y="687" type="line"/>
      <point x="1044" y="687" type="line"/>
      <point x="737" y="131" type="line"/>
      <point x="672" y="687" type="line"/>
      <point x="585" y="687" type="line"/>
      <point x="286" y="131" type="line"/>
      <point x="213" y="687" type="line"/>
      <point x="126" y="687" type="line"/>
      <point x="218" y="0" type="line"/>
    </contour>
  </outline>
</glyph>
<glyph name="asciicircum" format="1">
  <advance width="490"/>
  <unicode hex="005E"/>
  <outline>
    <contour>
      <point x="152" y="413" type="line"/>
      <point x="326" y="632" type="line"/>
      <point x="405" y="413" type="line"/>
      <point x="468" y="413" type="line"/>
      <point x="364" y="687" type="line"/>
      <point x="305" y="687" type="line"/>
      <point x="86" y="413" type="line"/>
    </contour>
  </outline>
</glyph>
<glyph name="grave" format="1">
  <advance width="324"/>
  <unicode hex="0060"/>
  <outline>
    <contour>
      <point x="327" y="576" type="line"/>
      <point x="236" y="720" type="line"/>
      <point x="155" y="702" type="line"/>
      <point x="271" y="576" type="line"/>
    </contour>
    <contour>
      <point x="285" y="704" type="move" name="top"/>
    </contour>
    <contour>
      <point x="246" y="517" type="move" name="_top"/>
    </contour>
  </outline>
</glyph>
<glyph name="a" format="1">
  <advance width="640"/>
  <unicode hex="0061"/>
  <outline>
    <contour>
      <point x="503" y="0" type="line"/>
      <point x="611" y="517" type="line"/>
      <point x="536" y="517" type="line"/>
      <point x="428" y="0" type="line"/>
    </contour>
    <component base="lowercase_loop_reverse"/>
  </outline>
</glyph>
<glyph name="b" format="1">
  <advance width="641"/>
  <unicode hex="0062"/>
  <outline>
    <contour>
      <point x="105" y="1" type="line"/>
      <point x="250" y="699" type="line"/>
      <point x="175" y="699" type="line"/>
      <point x="30" y="1" type="line"/>
    </contour>
    <component base="lowercase_loop" xOffset="31"/>
  </outline>
</glyph>
<glyph name="d" format="1">
  <advance width="641"/>
  <unicode hex="0064"/>
  <outline>
    <contour>
      <point x="504" y="1" type="line"/>
      <point x="649" y="699" type="line"/>
      <point x="574" y="699" type="line"/>
      <point x="429" y="1" type="line"/>
    </contour>
    <component base="lowercase_loop_reverse"/>
  </outline>
</glyph>
<glyph name="e" format="1">
  <advance width="568"/>
  <unicode hex="0065"/>
  <outline>
    <contour>
      <point x="322" y="-12"/>
      <point x="425" y="17"/>
      <point x="480" y="66" type="curve"/>
      <point x="440" y="119" type="line"/>
      <point x="402" y="84"/>
      <point x="329" y="55"/>
      <point x="265" y="55" type="curve" smooth="yes"/>
      <point x="173" y="55"/>
      <point x="117" y="116"/>
      <point x="117" y="210" type="curve" smooth="yes"/>
      <point x="117" y="334"/>
      <point x="215" y="462"/>
      <point x="354" y="462" type="curve" smooth="yes"/>
      <point x="421" y="462"/>
      <point x="471" y="432"/>
      <point x="471" y="382" type="curve" smooth="yes"/>
      <point x="471" y="328"/>
      <point x="414" y="297"/>
      <point x="314" y="297" type="curve"/>
      <point x="107" y="297" type="line"/>
      <point x="93" y="230" type="line"/>
      <point x="300" y="230" type="line"/>
      <point x="454" y="230"/>
      <point x="545" y="295"/>
      <point x="545" y="386" type="curve" smooth="yes"/>
      <point x="545" y="475"/>
      <point x="457" y="529"/>
      <point x="360" y="529" type="curve" smooth="yes"/>
      <point x="197" y="529"/>
      <point x="43" y="376"/>
      <point x="43" y="204" type="curve" smooth="yes"/>
      <point x="43" y="75"/>
      <point x="130" y="-12"/>
      <point x="252" y="-12" type="curve" smooth="yes"/>
    </contour>
    <contour>
      <point x="358" y="517" type="move" name="top"/>
    </contour>
    <contour>
      <point x="252" y="-12" type="move" name="bottom"/>
    </contour>
  </outline>
</glyph>
<glyph name="f" format="1">
  <advance width="350"/>
  <unicode hex="0066"/>
  <outline>
    <contour>
      <point x="139" y="0" type="line"/>
      <point x="261" y="585" type="line" smooth="yes"/>
      <point x="269" y="623"/>
      <point x="303" y="653"/>
      <point x="339" y="653" type="curve" smooth="yes"/>
      <point x="356" y="653"/>
      <point x="375" y="646"/>
      <point x="383" y="634" type="curve"/>
      <point x="428" y="685" type="line"/>
      <point x="404" y="706"/>
      <point x="372" y="720"/>
      <point x="335" y="720" type="curve" smooth="yes"/>
      <point x="263" y="720"/>
      <point x="203" y="668"/>
      <point x="187" y="591" type="curve" smooth="yes"/>
      <point x="64" y="0" type="line"/>
    </contour>
    <contour>
      <point x="360" y="450" type="line"/>
      <point x="374" y="517" type="line"/>
      <point x="91" y="517" type="line"/>
      <point x="77" y="450" type="line"/>
    </contour>
  </outline>
</glyph>
<glyph name="h" format="1">
  <advance width="592"/>
  <unicode hex="0068"/>
  <outline>
    <contour>
      <point x="98" y="0" type="line"/>
      <point x="244" y="699" type="line"/>
      <point x="169" y="699" type="line"/>
      <point x="23" y="0" type="line"/>
    </contour>
    <component base="lowercase_nh_shoulder" xOffset="-1"/>
  </outline>
</glyph>
<glyph name="i" format="1">
  <advance width="225"/>
  <unicode hex="0069"/>
  <outline>
    <contour>
      <point x="212" y="611"/>
      <point x="239" y="637"/>
      <point x="239" y="665" type="curve" smooth="yes"/>
      <point x="239" y="690"/>
      <point x="221" y="710"/>
      <point x="195" y="710" type="curve" smooth="yes"/>
      <point x="165" y="710"/>
      <point x="140" y="683"/>
      <point x="140" y="656" type="curve" smooth="yes"/>
      <point x="140" y="631"/>
      <point x="158" y="611"/>
      <point x="185" y="611" type="curve" smooth="yes"/>
    </contour>
    <component base="idotless"/>
  </outline>
</glyph>
<glyph name="k" format="1">
  <advance width="544"/>
  <unicode hex="006B"/>
  <outline>
    <contour>
      <point x="96" y="0" type="line"/>
      <point x="126" y="137" type="line"/>
      <point x="239" y="229" type="line"/>
      <point x="370" y="0" type="line"/>
      <point x="461" y="0" type="line"/>
      <point x="301" y="280" type="line"/>
      <point x="584" y="517" type="line"/>
      <point x="486" y="517" type="line"/>
      <point x="144" y="231" type="line"/>
      <point x="242" y="699" type="line"/>
      <point x="167" y="699" type="line"/>
      <point x="21" y="0" type="line"/>
    </contour>
  </outline>
</glyph>
<glyph name="l" format="1">
  <advance width="227"/>
  <unicode hex="006C"/>
  <outline>
    <contour>
      <point x="97" y="0" type="line"/>
      <point x="243" y="699" type="line"/>
      <point x="168" y="699" type="line"/>
      <point x="22" y="0" type="line"/>
    </contour>
  </outline>
</glyph>
<glyph name="m" format="1">
  <advance width="895"/>
  <unicode hex="006D"/>
  <outline>
    <contour>
      <point x="765" y="0" type="line"/>
      <point x="832" y="320"/>
      <point x="839" y="344"/>
      <point x="839" y="376" type="curve" smooth="yes"/>
      <point x="839" y="467"/>
      <point x="780" y="529"/>
      <point x="686" y="529" type="curve" smooth="yes"/>
      <point x="597" y="529"/>
      <point x="510" y="472"/>
      <point x="487" y="384" type="curve"/>
      <point x="499" y="326" type="line"/>
      <point x="514" y="406"/>
      <point x="593" y="462"/>
      <point x="669" y="462" type="curve" smooth="yes"/>
      <point x="731" y="462"/>
      <point x="762" y="424"/>
      <point x="762" y="359" type="curve" smooth="yes"/>
      <point x="762" y="339"/>
      <point x="759" y="331"/>
      <point x="690" y="0" type="curve"/>
    </contour>
    <contour>
      <point x="431" y="0" type="line"/>
      <point x="498" y="320"/>
      <point x="505" y="344"/>
      <point x="505" y="376" type="curve" smooth="yes"/>
      <point x="505" y="467"/>
      <point x="446" y="529"/>
      <point x="353" y="529" type="curve" smooth="yes"/>
      <point x="264" y="529"/>
      <point x="185" y="472"/>
      <point x="161" y="382" type="curve"/>
      <point x="165" y="326" type="line"/>
      <point x="181" y="406"/>
      <point x="259" y="462"/>
      <point x="335" y="462" type="curve" smooth="yes"/>
      <point x="397" y="462"/>
      <point x="428" y="424"/>
      <point x="428" y="359" type="curve" smooth="yes"/>
      <point x="428" y="339"/>
      <point x="425" y="331"/>
      <point x="356" y="0" type="curve"/>
    </contour>
    <component base="idotless" xOffset="1"/>
  </outline>
</glyph>
<glyph name="n" format="1">
  <advance width="592"/>
  <unicode hex="006E"/>
  <outline>
    <contour>
      <point x="98" y="0" type="line"/>
      <point x="206" y="517" type="line"/>
      <point x="131" y="517" type="line"/>
      <point x="23" y="0" type="line"/>
    </contour>
    <component base="lowercase_nh_shoulder" xOffset="-1"/>
    <contour>
      <point x="352" y="517" type="move" name="top"/>
    </contour>
    <contour>
      <point x="244" y="0" type="move" name="bottom"/>
    </contour>
  </outline>
</glyph>
<glyph name="q" format="1">
  <advance width="641"/>
  <unicode hex="0071"/>
  <outline>
    <contour>
      <point x="468" y="-172" type="line"/>
      <point x="611" y="517" type="line"/>
      <point x="536" y="517" type="line"/>
      <point x="393" y="-172" type="line"/>
    </contour>
    <component base="lowercase_loop_reverse"/>
  </outline>
</glyph>
<glyph name="r" format="1">
  <advance width="389"/>
  <unicode hex="0072"/>
  <outline>
    <contour>
      <point x="185" y="388"/>
      <point x="286" y="462"/>
      <point x="403" y="462" type="curve"/>
      <point x="412" y="529" type="line"/>
      <point x="285" y="529"/>
      <point x="183" y="453"/>
      <point x="160" y="342" type="curve"/>
      <point x="164" y="287" type="line"/>
    </contour>
    <contour>
      <point x="104" y="0" type="line"/>
      <point x="212" y="517" type="line"/>
      <point x="137" y="517" type="line"/>
      <point x="29" y="0" type="line"/>
    </contour>
    <contour>
      <point x="280" y="517" type="move" name="top"/>
    </contour>
  </outline>
</glyph>
<glyph name="s" format="1">
  <advance width="495"/>
  <unicode hex="0073"/>
  <outline>
    <contour>
      <point x="325" y="-12"/>
      <point x="425" y="70"/>
      <point x="425" y="168" type="curve" smooth="yes"/>
      <point x="425" y="226"/>
      <point x="384" y="262"/>
      <point x="280" y="294" type="curve" smooth="yes"/>
      <point x="200" y="324"/>
      <point x="168" y="345"/>
      <point x="168" y="369" type="curve" smooth="yes"/>
      <point x="168" y="423"/>
      <point x="222" y="462"/>
      <point x="298" y="462" type="curve" smooth="yes"/>
      <point x="343" y="462"/>
      <point x="394" y="445"/>
      <point x="434" y="415" type="curve"/>
      <point x="478" y="469" type="line"/>
      <point x="427" y="507"/>
      <point x="361" y="529"/>
      <point x="301" y="529" type="curve" smooth="yes"/>
      <point x="179" y="529"/>
      <point x="92" y="457"/>
      <point x="92" y="354" type="curve" smooth="yes"/>
      <point x="92" y="298"/>
      <point x="135" y="263"/>
      <point x="242" y="232" type="curve" smooth="yes"/>
      <point x="318" y="207"/>
      <point x="349" y="185"/>
      <point x="349" y="155" type="curve" smooth="yes"/>
      <point x="349" y="101"/>
      <point x="285" y="55"/>
      <point x="210" y="55" type="curve" smooth="yes"/>
      <point x="157" y="55"/>
      <point x="98" y="78"/>
      <point x="52" y="118" type="curve"/>
      <point x="5" y="67" type="line"/>
      <point x="58" y="17"/>
      <point x="133" y="-12"/>
      <point x="207" y="-12" type="curve" smooth="yes"/>
    </contour>
  </outline>
</glyph>
<glyph name="t" format="1">
  <advance width="373"/>
  <unicode hex="0074"/>
  <outline>
    <contour>
      <point x="226" y="-12"/>
      <point x="261" y="-2"/>
      <point x="293" y="19" type="curve"/>
      <point x="263" y="78" type="line"/>
      <point x="251" y="66"/>
      <point x="227" y="55"/>
      <point x="201" y="55" type="curve" smooth="yes"/>
      <point x="178" y="55"/>
      <point x="162" y="72"/>
      <point x="162" y="100" type="curve" smooth="yes"/>
      <point x="162" y="110"/>
      <point x="157" y="82"/>
      <point x="277" y="659" type="curve"/>
      <point x="202" y="659" type="line"/>
      <point x="93" y="138"/>
      <point x="87" y="121"/>
      <point x="87" y="92" type="curve" smooth="yes"/>
      <point x="87" y="31"/>
      <point x="128" y="-12"/>
      <point x="193" y="-12" type="curve" smooth="yes"/>
    </contour>
    <contour>
      <point x="360" y="450" type="line"/>
      <point x="374" y="517" type="line"/>
      <point x="91" y="517" type="line"/>
      <point x="77" y="450" type="line"/>
    </contour>
    <contour>
      <point x="196" y="0" type="move" name="bottom"/>
    </contour>
  </outline>
</glyph>
<glyph name="v" format="1">
  <advance width="563"/>
  <unicode hex="0076"/>
  <outline>
    <contour>
      <point x="265" y="0" type="line"/>
      <point x="590" y="517" type="line"/>
      <point x="504" y="517" type="line"/>
      <point x="245" y="88" type="line"/>
      <point x="163" y="517" type="line"/>
      <point x="81" y="517" type="line"/>
      <point x="193" y="0" type="line"/>
    </contour>
  </outline>
</glyph>
<glyph name="w" format="1">
  <advance width="833"/>
  <unicode hex="0077"/>
  <outline>
    <contour>
      <point x="225" y="0" type="line"/>
      <point x="451" y="413" type="line"/>
      <point x="501" y="0" type="line"/>
      <point x="572" y="0" type="line"/>
      <point x="854" y="517" type="line"/>
      <point x="772" y="517" type="line"/>
      <point x="556" y="100" type="line"/>
      <point x="502" y="518" type="line"/>
      <point x="437" y="518" type="line"/>
      <point x="209" y="100" type="line"/>
      <point x="167" y="517" type="line"/>
      <point x="89" y="517" type="line"/>
      <point x="154" y="0" type="line"/>
    </contour>
  </outline>
</glyph>
<glyph name="x" format="1">
  <advance width="551"/>
  <unicode hex="0078"/>
  <outline>
    <contour>
      <point x="465" y="0" type="line"/>
      <point x="182" y="517" type="line"/>
      <point x="96" y="517" type="line"/>
      <point x="380" y="0" type="line"/>
    </contour>
    <contour>
      <point x="69" y="0" type="line"/>
      <point x="567" y="517" type="line"/>
      <point x="477" y="517" type="line"/>
      <point x="-22" y="0" type="line"/>
    </contour>
  </outline>
</glyph>
<glyph name="cent" format="1">
  <advance width="544"/>
  <unicode hex="00A2"/>
  <outline>
    <contour>
      <point x="273" y="-74" type="line"/>
      <point x="411" y="589" type="line"/>
      <point x="333" y="589" type="line"/>
      <point x="195" y="-74" type="line"/>
    </contour>
    <component base="c"/>
  </outline>
</glyph>
<glyph name="yen" format="1">
  <advance width="671"/>
  <unicode hex="00A5"/>
  <outline>
    <contour>
      <point x="554" y="115" type="line"/>
      <point x="568" y="182" type="line"/>
      <point x="72" y="182" type="line"/>
      <point x="58" y="115" type="line"/>
    </contour>
    <contour>
      <point x="585" y="262" type="line"/>
      <point x="599" y="329" type="line"/>
      <point x="103" y="329" type="line"/>
      <point x="89" y="262" type="line"/>
    </contour>
    <component base="Y"/>
  </outline>
</glyph>
<glyph name="paragraph" format="1">
  <advance width="621"/>
  <unicode hex="00B6"/>
  <outline>
    <contour>
      <point x="268" y="-50" type="line"/>
      <point x="409" y="629" type="line"/>
      <point x="526" y="629" type="line"/>
      <point x="385" y="-50" type="line"/>
      <point x="447" y="-50" type="line"/>
      <point x="600" y="687" type="line"/>
      <point x="344" y="687" type="line"/>
      <point x="205" y="687"/>
      <point x="85" y="591"/>
      <point x="85" y="456" type="curve" smooth="yes"/>
      <point x="85" y="361"/>
      <point x="159" y="297"/>
      <point x="281" y="297" type="curve"/>
      <point x="206" y="-50" type="line"/>
    </contour>
  </outline>
</glyph>
<glyph name="periodcentered" format="1">
  <advance width="237"/>
  <unicode hex="00B7"/>
  <outline>
    <contour>
      <point x="146" y="221"/>
      <point x="173" y="246"/>
      <point x="173" y="279" type="curve" smooth="yes"/>
      <point x="173" y="305"/>
      <point x="154" y="324"/>
      <point x="127" y="324" type="curve" smooth="yes"/>
      <point x="97" y="324"/>
      <point x="71" y="299"/>
      <point x="71" y="266" type="curve" smooth="yes"/>
      <point x="71" y="240"/>
      <point x="89" y="221"/>
      <point x="117" y="221" type="curve" smooth="yes"/>
    </contour>
  </outline>
</glyph>
<glyph name="AE" format="1">
  <advance width="1024"/>
  <unicode hex="00C6"/>
  <outline>
    <contour>
      <point x="71" y="0" type="line"/>
      <point x="610" y="687" type="line"/>
      <point x="518" y="687" type="line"/>
      <point x="-22" y="0" type="line"/>
    </contour>
    <contour>
      <point x="477" y="156" type="line"/>
      <point x="492" y="230" type="line"/>
      <point x="173" y="230" type="line"/>
      <point x="158" y="156" type="line"/>
    </contour>
    <component base="E" xOffset="397"/>
  </outline>
</glyph>
<glyph name="Eth" format="1">
  <advance width="779"/>
  <unicode hex="00D0"/>
  <outline>
    <contour>
      <point x="402" y="313" type="line"/>
      <point x="418" y="387" type="line"/>
      <point x="69" y="387" type="line"/>
      <point x="54" y="313" type="line"/>
    </contour>
    <component base="D" xOffset="16"/>
  </outline>
</glyph>
<glyph name="Thorn" format="1">
  <advance width="645"/>
  <unicode hex="00DE"/>
  <outline>
    <contour>
      <point x="103" y="0" type="line"/>
      <point x="130" y="126" type="line"/>
      <point x="333" y="126" type="line" smooth="yes"/>
      <point x="491" y="126"/>
      <point x="633" y="237"/>
      <point x="633" y="385" type="curve" smooth="yes"/>
      <point x="633" y="493"/>
      <point x="544" y="566"/>
      <point x="419" y="566" type="curve" smooth="yes"/>
      <point x="223" y="566" type="line"/>
      <point x="248" y="687" type="line"/>
      <point x="168" y="687" type="line"/>
      <point x="25" y="0" type="line"/>
    </contour>
    <contour>
      <point x="206" y="492" type="line"/>
      <point x="396" y="492" type="line" smooth="yes"/>
      <point x="495" y="492"/>
      <point x="555" y="452"/>
      <point x="555" y="381" type="curve" smooth="yes"/>
      <point x="555" y="274"/>
      <point x="452" y="200"/>
      <point x="329" y="200" type="curve" smooth="yes"/>
      <point x="145" y="200" type="line"/>
    </contour>
  </outline>
</glyph>
<glyph name="germandbls" format="1">
  <advance width="576"/>
  <unicode hex="00DF"/>
  <outline>
    <contour>
      <point x="108" y="0" type="line"/>
      <point x="215" y="510" type="line" smooth="yes"/>
      <point x="230" y="582"/>
      <point x="298" y="636"/>
      <point x="376" y="636" type="curve" smooth="yes"/>
      <point x="440" y="636"/>
      <point x="480" y="600"/>
      <point x="480" y="547" type="curve" smooth="yes"/>
      <point x="480" y="470"/>
      <point x="403" y="396"/>
      <point x="318" y="396" type="curve" smooth="yes"/>
      <point x="266" y="396" type="line"/>
      <point x="251" y="325" type="line"/>
      <point x="321" y="325" type="line" smooth="yes"/>
      <point x="395" y="325"/>
      <point x="441" y="287"/>
      <point x="441" y="229" type="curve" smooth="yes"/>
      <point x="441" y="145"/>
      <point x="358" y="71"/>
      <point x="262" y="71" type="curve" smooth="yes"/>
      <point x="198" y="71" type="line"/>
      <point x="183" y="0" type="line"/>
      <point x="273" y="0" type="line" smooth="yes"/>
      <point x="404" y="0"/>
      <point x="516" y="95"/>
      <point x="516" y="220" type="curve" smooth="yes"/>
      <point x="516" y="281"/>
      <point x="482" y="330"/>
      <point x="425" y="362" type="curve"/>
      <point x="506" y="404"/>
      <point x="560" y="472"/>
      <point x="560" y="558" type="curve" smooth="yes"/>
      <point x="560" y="647"/>
      <point x="491" y="707"/>
      <point x="381" y="707" type="curve" smooth="yes"/>
      <point x="262" y="707"/>
      <point x="163" y="635"/>
      <point x="141" y="529" type="curve" smooth="yes"/>
      <point x="30" y="0" type="line"/>
    </contour>
  </outline>
</glyph>
<glyph name="idotless" format="1">
  <advance width="225"/>
  <unicode hex="0131"/>
  <outline>
    <contour>
      <point x="96" y="0" type="line"/>
      <point x="204" y="517" type="line"/>
      <point x="129" y="517" type="line"/>
      <point x="21" y="0" type="line"/>
    </contour>
  </outline>
</glyph>
<glyph name="jdotless" format="1">
  <advance width="225"/>
  <unicode hex="0237"/>
  <outline>
    <contour>
      <point x="10" y="-178"/>
      <point x="70" y="-126"/>
      <point x="86" y="-49" type="curve" smooth="yes"/>
      <point x="204" y="517" type="line"/>
      <point x="129" y="517" type="line"/>
      <point x="13" y="-43" type="line" smooth="yes"/>
      <point x="5" y="-81"/>
      <point x="-27" y="-111"/>
      <point x="-63" y="-111" type="curve" smooth="yes"/>
      <point x="-81" y="-111"/>
      <point x="-107" y="-107"/>
      <point x="-122" y="-101" type="curve"/>
      <point x="-142" y="-161" type="line"/>
      <point x="-123" y="-170"/>
      <point x="-92" y="-178"/>
      <point x="-61" y="-178" type="curve" smooth="yes"/>
    </contour>
  </outline>
</glyph>
<glyph name="breve" format="1">
  <advance width="419"/>
  <unicode hex="02D8"/>
  <outline>
    <contour>
      <point x="333" y="589"/>
      <point x="389" y="607"/>
      <point x="437" y="647" type="curve"/>
      <point x="396" y="698" type="line"/>
      <point x="364" y="672"/>
      <point x="323" y="654"/>
      <point x="285" y="654" type="curve" smooth="yes"/>
      <point x="253" y="654"/>
      <point x="219" y="668"/>
      <point x="198" y="694" type="curve"/>
      <point x="145" y="651" type="line"/>
      <point x="179" y="611"/>
      <point x="227" y="589"/>
      <point x="282" y="589" type="curve" smooth="yes"/>
    </contour>
    <contour>
      <point x="301" y="704" type="move" name="top"/>
    </contour>
    <contour>
      <point x="262" y="517" type="move" name="_top"/>
    </contour>
  </outline>
</glyph>
<glyph name="ogonek" format="1">
  <advance width="321"/>
  <unicode hex="02DB"/>
  <outline>
    <contour>
      <point x="117" y="-173"/>
      <point x="147" y="-165"/>
      <point x="174" y="-146" type="curve"/>
      <point x="148" y="-93" type="line"/>
      <point x="135" y="-106"/>
      <point x="115" y="-114"/>
      <point x="94" y="-114" type="curve" smooth="yes"/>
      <point x="67" y="-114"/>
      <point x="51" y="-100"/>
      <point x="51" y="-77" type="curve" smooth="yes"/>
      <point x="51" y="-32"/>
      <point x="82" y="0"/>
      <point x="126" y="0" type="curve"/>
      <point x="64" y="20" type="line"/>
      <point x="24" y="4"/>
      <point x="-6" y="-38"/>
      <point x="-6" y="-88" type="curve" smooth="yes"/>
      <point x="-6" y="-141"/>
      <point x="31" y="-173"/>
      <point x="88" y="-173" type="curve" smooth="yes"/>
    </contour>
    <contour>
      <point x="123" y="0" type="move" name="_bottom"/>
    </contour>
  </outline>
</glyph>
<glyph name="endash" format="1">
  <advance width="578"/>
  <unicode hex="2013"/>
  <outline>
    <contour>
      <point x="517" y="236" type="line"/>
      <point x="531" y="307" type="line"/>
      <point x="66" y="307" type="line"/>
      <point x="52" y="236" type="line"/>
    </contour>
  </outline>
</glyph>
<glyph name="bullet" format="1">
  <advance width="418"/>
  <unicode hex="2022"/>
  <outline>
    <contour>
      <point x="269" y="178"/>
      <point x="339" y="243"/>
      <point x="339" y="317" type="curve" smooth="yes"/>
      <point x="339" y="373"/>
      <point x="297" y="417"/>
      <point x="238" y="417" type="curve" smooth="yes"/>
      <point x="165" y="417"/>
      <point x="97" y="351"/>
      <point x="97" y="278" type="curve" smooth="yes"/>
      <point x="97" y="221"/>
      <point x="139" y="178"/>
      <point x="199" y="178" type="curve" smooth="yes"/>
    </contour>
  </outline>
</glyph>
<glyph name="minus" format="1">
  <advance width="594"/>
  <unicode hex="2212"/>
  <outline>
    <contour>
      <point x="534" y="297" type="line"/>
      <point x="550" y="371" type="line"/>
      <point x="91" y="371" type="line"/>
      <point x="75" y="297" type="line"/>
    </contour>
  </outline>
</glyph>
<glyph name="lowercase_loop_reverse" format="1">
  <advance width="609"/>
  <outline>
    <contour>
      <point x="397" y="-12"/>
      <point x="527" y="145"/>
      <point x="527" y="331" type="curve" smooth="yes"/>
      <point x="527" y="438"/>
      <point x="448" y="529"/>
      <point x="354" y="529" type="curve" smooth="yes"/>
      <point x="188" y="529"/>
      <point x="48" y="376"/>
      <point x="48" y="194" type="curve" smooth="yes"/>
      <point x="48" y="82"/>
      <point x="137" y="-12"/>
      <point x="242" y="-12" type="curve" smooth="yes"/>
    </contour>
    <contour>
      <point x="185" y="55"/>
      <point x="126" y="121"/>
      <point x="126" y="199" type="curve" smooth="yes"/>
      <point x="126" y="342"/>
      <point x="224" y="462"/>
      <point x="340" y="462" type="curve" smooth="yes"/>
      <point x="420" y="462"/>
      <point x="488" y="396"/>
      <point x="488" y="318" type="curve" smooth="yes"/>
      <point x="488" y="175"/>
      <point x="382" y="55"/>
      <point x="256" y="55" type="curve" smooth="yes"/>
    </contour>
  </outline>
</glyph>
<glyph name="lowercase_nh_shoulder" format="1">
  <advance width="600"/>
  <outline>
    <contour>
      <point x="462" y="0" type="line"/>
      <point x="527" y="311"/>
      <point x="535" y="336"/>
      <point x="535" y="374" type="curve" smooth="yes"/>
      <point x="535" y="466"/>
      <point x="473" y="529"/>
      <point x="373" y="529" type="curve" smooth="yes"/>
      <point x="280" y="529"/>
      <point x="184" y="463"/>
      <point x="162" y="382" type="curve"/>
      <point x="167" y="326" type="line"/>
      <point x="182" y="398"/>
      <point x="270" y="462"/>
      <point x="360" y="462" type="curve" smooth="yes"/>
      <point x="421" y="462"/>
      <point x="458" y="423"/>
      <point x="458" y="361" type="curve" smooth="yes"/>
      <point x="458" y="330"/>
      <point x="451" y="308"/>
      <point x="387" y="0" type="curve"/>
    </contour>
  </outline>
</glyph>
